<svg width="49" height="16" viewBox="0 0 49 16" fill="none" xmlns="http://www.w3.org/2000/svg">
<path d="M14.5 8C14.5 9.5 11.59 12.5 8 12.5C4.41 12.5 1.5 9.5 1.5 8C1.5 6.5 4.41 3.5 8 3.5C11.59 3.5 14.5 6.5 14.5 8Z" stroke="black" stroke-linejoin="round"/>
<path d="M10.5 8C10.5 8.66304 10.2366 9.29893 9.76777 9.76777C9.29893 10.2366 8.66304 10.5 8 10.5C7.33696 10.5 6.70107 10.2366 6.23223 9.76777C5.76339 9.29893 5.5 8.66304 5.5 8C5.5 7.33696 5.76339 6.70107 6.23223 6.23223C6.70107 5.76339 7.33696 5.5 8 5.5C8.66304 5.5 9.29893 5.76339 9.76777 6.23223C10.2366 6.70107 10.5 7.33696 10.5 8Z" stroke="black" stroke-linejoin="round"/>
<path d="M27.6914 12H26.6484L24.3047 5.63672H25.4062L27.1406 10.6875H27.2109L28.9453 5.63672H30.0469L27.6914 12ZM31.1602 5.63672H32.168V12H31.1602V5.63672ZM31.6641 4.58203C31.4688 4.58203 31.3027 4.51758 31.166 4.38867C31.0293 4.25977 30.9609 4.10156 30.9609 3.91406C30.9609 3.72656 31.0293 3.56836 31.166 3.43945C31.3027 3.31055 31.4688 3.24609 31.6641 3.24609C31.8594 3.24609 32.0273 3.31055 32.168 3.43945C32.3086 3.56836 32.3789 3.72656 32.3789 3.91406C32.3789 4.10156 32.3086 4.25977 32.168 4.38867C32.0273 4.51758 31.8594 4.58203 31.6641 4.58203ZM36.4453 12.1289C35.8398 12.1289 35.3125 11.9941 34.8633 11.7246C34.4141 11.4551 34.0684 11.0742 33.8262 10.582C33.5879 10.0898 33.4688 9.51953 33.4688 8.87109C33.4688 8.22266 33.5879 7.64844 33.8262 7.14844C34.0684 6.64453 34.4062 6.25391 34.8398 5.97656C35.2773 5.69531 35.7812 5.55469 36.3516 5.55469C36.832 5.55469 37.2793 5.66211 37.6934 5.87695C38.1074 6.08789 38.4434 6.43164 38.7012 6.9082C38.9629 7.38086 39.0938 7.98828 39.0938 8.73047V9.15234H34.4766C34.4922 9.59375 34.584 9.9707 34.752 10.2832C34.9199 10.5957 35.1484 10.834 35.4375 10.998C35.7305 11.1582 36.0664 11.2383 36.4453 11.2383C36.8047 11.2383 37.1074 11.1719 37.3535 11.0391C37.6035 10.9023 37.793 10.7266 37.9219 10.5117H39C38.8984 10.832 38.7285 11.1152 38.4902 11.3613C38.2559 11.6035 37.9629 11.793 37.6113 11.9297C37.2637 12.0625 36.875 12.1289 36.4453 12.1289ZM38.0742 8.29688C38.0742 7.94141 38.002 7.625 37.8574 7.34766C37.7168 7.06641 37.5156 6.8457 37.2539 6.68555C36.9922 6.52539 36.6914 6.44531 36.3516 6.44531C35.9961 6.44531 35.6797 6.5293 35.4023 6.69727C35.1289 6.86523 34.9121 7.0918 34.752 7.37695C34.5957 7.6582 34.5059 7.96484 34.4824 8.29688H38.0742ZM39.9023 5.63672H40.9688L42.3281 10.4883H42.3867L43.7344 5.63672H44.8125L46.1367 10.4648H46.207L47.5664 5.63672H48.6211L46.6875 12H45.6914L44.3086 7.14844H44.2148L42.8438 12H41.8359L39.9023 5.63672Z" fill="#14181F"/>
</svg>
