<svg width="30" height="30" viewBox="0 0 30 30" fill="none" xmlns="http://www.w3.org/2000/svg">
<path d="M17.9196 30C18.9505 30 19.6802 29.1128 20.2097 27.7381L29.5847 3.23585C29.8424 2.57719 30 1.99002 30 1.50305C30 0.572505 29.4131 0 28.4825 0C27.9958 0 27.4089 0.142973 26.7506 0.400815L2.13309 9.83707C0.930057 10.2953 0 11.0255 0 12.0709C0 13.3882 1.00212 13.8324 2.37613 14.2479L12.71 17.2833L15.7157 27.4937C16.145 28.9399 16.589 30 17.9202 30M13.3548 15.1075L3.4784 12.0855C3.2494 12.0134 3.17795 11.956 3.17795 11.8558C3.17795 11.7556 3.23474 11.6847 3.4497 11.5986L22.8001 4.2666C23.9452 3.83707 25.0474 3.26395 26.1063 2.77699C25.1622 3.55051 23.9885 4.46701 23.2014 5.25458L13.3548 15.1075ZM18.1493 26.8503C18.0351 26.8503 17.9776 26.7495 17.9062 26.5204L14.8858 16.6399L24.7329 6.78758C25.506 6.01405 26.4648 4.811 27.2239 3.83768C26.7372 4.92525 26.1644 6.02811 25.721 7.18839L18.3929 26.5491C18.3068 26.7642 18.2494 26.8503 18.1493 26.8503Z" fill="#033FFF"/>
</svg>
