<svg width="24" height="24" viewBox="0 0 24 24" fill="none" xmlns="http://www.w3.org/2000/svg">
<path d="M9.00001 6.00072C9.00001 8.38767 9.94822 10.6769 11.636 12.3647C13.3239 14.0525 15.6131 15.0007 18 15.0007C18.91 15.0007 19.787 14.8667 20.614 14.6157C20.053 16.4632 18.9128 18.0813 17.3616 19.231C15.8105 20.3808 13.9308 21.0012 12 21.0007C9.84086 21.0023 7.75311 20.2276 6.11763 18.8179C4.48215 17.4083 3.40795 15.4576 3.09099 13.3219C2.77403 11.1861 3.23545 9.00762 4.39107 7.18376C5.54668 5.3599 7.31947 4.01227 9.38601 3.38672C9.12944 4.23432 8.99937 5.11514 9.00001 6.00072Z" stroke="#033FFF" stroke-width="2" stroke-linecap="round" stroke-linejoin="round"/>
</svg>
