<svg width="72" height="72" viewBox="0 0 72 72" fill="none" xmlns="http://www.w3.org/2000/svg">
<path d="M16 1H56C64.2843 1 71 7.71573 71 16V56C71 64.2843 64.2843 71 56 71H16C7.71573 71 1 64.2843 1 56V16C1 7.71573 7.71573 1 16 1Z" fill="white"/>
<path d="M16 1H56C64.2843 1 71 7.71573 71 16V56C71 64.2843 64.2843 71 56 71H16C7.71573 71 1 64.2843 1 56V16C1 7.71573 7.71573 1 16 1Z" stroke="#033FFF" stroke-width="2"/>
<rect width="24" height="24" transform="translate(24 24)" fill="white"/>
<path d="M40 36C40 35.4696 40.2107 34.9609 40.5858 34.5858C40.9609 34.2107 41.4696 34 42 34C42.5304 34 43.0391 34.2107 43.4142 34.5858C43.7893 34.9609 44 35.4696 44 36C44 36.5304 43.7893 37.0391 43.4142 37.4142C43.0391 37.7893 42.5304 38 42 38C41.4696 38 40.9609 37.7893 40.5858 37.4142C40.2107 37.0391 40 36.5304 40 36ZM34 36C34 35.4696 34.2107 34.9609 34.5858 34.5858C34.9609 34.2107 35.4696 34 36 34C36.5304 34 37.0391 34.2107 37.4142 34.5858C37.7893 34.9609 38 35.4696 38 36C38 36.5304 37.7893 37.0391 37.4142 37.4142C37.0391 37.7893 36.5304 38 36 38C35.4696 38 34.9609 37.7893 34.5858 37.4142C34.2107 37.0391 34 36.5304 34 36ZM28 36C28 35.4696 28.2107 34.9609 28.5858 34.5858C28.9609 34.2107 29.4696 34 30 34C30.5304 34 31.0391 34.2107 31.4142 34.5858C31.7893 34.9609 32 35.4696 32 36C32 36.5304 31.7893 37.0391 31.4142 37.4142C31.0391 37.7893 30.5304 38 30 38C29.4696 38 28.9609 37.7893 28.5858 37.4142C28.2107 37.0391 28 36.5304 28 36ZM30 35C29.7348 35 29.4804 35.1054 29.2929 35.2929C29.1054 35.4804 29 35.7348 29 36C29 36.2652 29.1054 36.5196 29.2929 36.7071C29.4804 36.8946 29.7348 37 30 37C30.2652 37 30.5196 36.8946 30.7071 36.7071C30.8946 36.5196 31 36.2652 31 36C31 35.7348 30.8946 35.4804 30.7071 35.2929C30.5196 35.1054 30.2652 35 30 35ZM36 35C35.7348 35 35.4804 35.1054 35.2929 35.2929C35.1054 35.4804 35 35.7348 35 36C35 36.2652 35.1054 36.5196 35.2929 36.7071C35.4804 36.8946 35.7348 37 36 37C36.2652 37 36.5196 36.8946 36.7071 36.7071C36.8946 36.5196 37 36.2652 37 36C37 35.7348 36.8946 35.4804 36.7071 35.2929C36.5196 35.1054 36.2652 35 36 35ZM42 35C41.7348 35 41.4804 35.1054 41.2929 35.2929C41.1054 35.4804 41 35.7348 41 36C41 36.2652 41.1054 36.5196 41.2929 36.7071C41.4804 36.8946 41.7348 37 42 37C42.2652 37 42.5196 36.8946 42.7071 36.7071C42.8946 36.5196 43 36.2652 43 36C43 35.7348 42.8946 35.4804 42.7071 35.2929C42.5196 35.1054 42.2652 35 42 35Z" fill="#033FFF"/>
</svg>
