<svg width="24" height="24" viewBox="0 0 24 24" fill="none" xmlns="http://www.w3.org/2000/svg">
<path d="M5.636 8.04964L6.343 7.34264C7.68202 6.00333 9.45276 5.18249 11.3402 5.02617C13.2276 4.86985 15.1092 5.3882 16.6503 6.48897C18.1914 7.58975 19.2921 9.20157 19.7564 11.0376C20.2206 12.8737 20.0185 14.815 19.1859 16.516C18.3533 18.217 16.9442 19.5675 15.2093 20.3271C13.4745 21.0868 11.5264 21.2063 9.71171 20.6645C7.897 20.1226 6.33337 18.9546 5.29902 17.3681C4.26467 15.7817 3.82669 13.8797 4.063 12.0006M5.636 8.04964L9.879 8.05064M5.636 8.04964V3.80664" stroke="black" stroke-width="1.5" stroke-linecap="round" stroke-linejoin="round"/>
</svg>
