<svg width="20" height="20" viewBox="0 0 20 20" fill="none" xmlns="http://www.w3.org/2000/svg">
<path d="M2.27075 17.5C2.11798 17.5 1.97909 17.4619 1.85409 17.3858C1.72909 17.3097 1.63187 17.2089 1.56242 17.0833C1.49298 16.9578 1.45492 16.8222 1.44826 16.6767C1.44159 16.5311 1.47964 16.3889 1.56242 16.25L9.27076 2.91667C9.35409 2.77778 9.46187 2.67361 9.59409 2.60417C9.72631 2.53472 9.86159 2.5 9.99992 2.5C10.1383 2.5 10.2738 2.53472 10.4066 2.60417C10.5394 2.67361 10.6469 2.77778 10.7291 2.91667L18.4374 16.25C18.5208 16.3889 18.5591 16.5314 18.5524 16.6775C18.5458 16.8236 18.5074 16.9589 18.4374 17.0833C18.3674 17.2078 18.2702 17.3086 18.1458 17.3858C18.0213 17.4631 17.8824 17.5011 17.7291 17.5H2.27075ZM3.70825 15.8333H16.2916L9.99992 5L3.70825 15.8333ZM9.99992 15C10.236 15 10.4341 14.92 10.5941 14.76C10.7541 14.6 10.8338 14.4022 10.8333 14.1667C10.8327 13.9311 10.7527 13.7333 10.5933 13.5733C10.4338 13.4133 10.236 13.3333 9.99992 13.3333C9.76381 13.3333 9.56603 13.4133 9.40659 13.5733C9.24714 13.7333 9.16714 13.9311 9.16659 14.1667C9.16603 14.4022 9.24603 14.6003 9.40659 14.7608C9.56714 14.9214 9.76492 15.0011 9.99992 15ZM9.99992 12.5C10.236 12.5 10.4341 12.42 10.5941 12.26C10.7541 12.1 10.8338 11.9022 10.8333 11.6667V9.16667C10.8333 8.93056 10.7533 8.73278 10.5933 8.57333C10.4333 8.41389 10.2355 8.33389 9.99992 8.33333C9.76437 8.33278 9.56659 8.41278 9.40659 8.57333C9.24659 8.73389 9.16659 8.93167 9.16659 9.16667V11.6667C9.16659 11.9028 9.24659 12.1008 9.40659 12.2608C9.56659 12.4208 9.76437 12.5006 9.99992 12.5Z" fill="#FA9538"/>
</svg>
