<svg width="216" height="75" viewBox="0 0 216 75" fill="none" xmlns="http://www.w3.org/2000/svg">
<path d="M38 25L44 21H55V27H45.125L41 30V53H35V30L31.25 27H21V21H32L38 25Z" fill="#033FFF"/>
<path d="M56.1628 53.3729C54.199 53.3729 52.5087 52.9751 51.0918 52.1797C49.6832 51.3759 48.5977 50.2408 47.8354 48.7741C47.0731 47.2992 46.6919 45.555 46.6919 43.5415C46.6919 41.5778 47.0731 39.8543 47.8354 38.3711C48.5977 36.8879 49.6708 35.732 51.0545 34.9034C52.4466 34.0748 54.0789 33.6605 55.9515 33.6605C57.211 33.6605 58.3835 33.8635 59.4689 34.2695C60.5627 34.6673 61.5156 35.268 62.3276 36.0717C63.1479 36.8755 63.7859 37.8864 64.2417 39.1044C64.6974 40.3142 64.9252 41.7311 64.9252 43.3551V44.8093H48.8049V41.5281H59.9412C59.9412 40.7657 59.7755 40.0904 59.4441 39.5021C59.1126 38.9138 58.6528 38.454 58.0645 38.1225C57.4844 37.7828 56.8091 37.6129 56.0385 37.6129C55.2348 37.6129 54.5222 37.7994 53.9007 38.1722C53.2876 38.5368 52.807 39.0298 52.459 39.6513C52.111 40.2644 51.9328 40.948 51.9245 41.7021V44.8217C51.9245 45.7663 52.0985 46.5825 52.4466 47.2702C52.8029 47.958 53.3042 48.4883 53.9505 48.8612C54.5968 49.234 55.3632 49.4205 56.2498 49.4205C56.8381 49.4205 57.3767 49.3376 57.8656 49.1719C58.3545 49.0062 58.7729 48.7576 59.1209 48.4261C59.4689 48.0947 59.7341 47.6887 59.9164 47.2081L64.8134 47.5312C64.5648 48.7079 64.0552 49.7353 63.2846 50.6136C62.5223 51.4837 61.5363 52.1631 60.3265 52.652C59.1251 53.1326 57.7372 53.3729 56.1628 53.3729ZM77.0062 53.3729C75.0507 53.3729 73.3687 52.9586 71.96 52.13C70.5597 51.2931 69.4825 50.133 68.7285 48.6499C67.9828 47.1667 67.6099 45.4598 67.6099 43.5291C67.6099 41.5736 67.9869 39.8584 68.7409 38.3835C69.5033 36.9003 70.5846 35.7444 71.9849 34.9158C73.3852 34.079 75.0507 33.6605 76.9814 33.6605C78.6468 33.6605 80.1052 33.9629 81.3564 34.5678C82.6075 35.1727 83.5977 36.022 84.3269 37.1158C85.056 38.2095 85.4579 39.4938 85.5325 40.9688H80.536C80.3952 40.0159 80.0223 39.2494 79.4174 38.6694C78.8208 38.0811 78.0378 37.7869 77.0684 37.7869C76.248 37.7869 75.5313 38.0107 74.9181 38.4581C74.3133 38.8973 73.841 39.5394 73.5012 40.3846C73.1615 41.2298 72.9917 42.2531 72.9917 43.4545C72.9917 44.6726 73.1574 45.7083 73.4888 46.5618C73.8285 47.4152 74.305 48.0657 74.9181 48.5131C75.5313 48.9606 76.248 49.1843 77.0684 49.1843C77.6732 49.1843 78.216 49.06 78.6966 48.8114C79.1854 48.5629 79.5873 48.2024 79.9022 47.7301C80.2253 47.2495 80.4366 46.6737 80.536 46.0025H85.5325C85.4496 47.4608 85.0519 48.7451 84.3393 49.8555C83.635 50.9575 82.6614 51.8192 81.4185 52.4407C80.1756 53.0621 78.7048 53.3729 77.0062 53.3729ZM94.2172 41.9631V53H88.9225V27.5455H94.0681V37.2773H94.2918C94.7227 36.1504 95.4187 35.268 96.3799 34.63C97.3411 33.9837 98.5467 33.6605 99.9967 33.6605C101.322 33.6605 102.478 33.9505 103.464 34.5305C104.459 35.1023 105.229 35.9267 105.776 37.0039C106.331 38.0728 106.605 39.353 106.597 40.8445V53H101.302V41.7891C101.31 40.6125 101.012 39.6969 100.407 39.0423C99.8103 38.3877 98.9734 38.0604 97.8962 38.0604C97.1753 38.0604 96.5373 38.2137 95.9822 38.5202C95.4353 38.8268 95.0044 39.2743 94.6895 39.8626C94.383 40.4426 94.2255 41.1428 94.2172 41.9631Z" fill="#1E1E1E"/>
<path d="M139.16 53.3729C137.229 53.3729 135.56 52.9627 134.151 52.1424C132.751 51.3138 131.669 50.1621 130.907 48.6871C130.145 47.204 129.764 45.4846 129.764 43.5291C129.764 41.5571 130.145 39.8336 130.907 38.3587C131.669 36.8755 132.751 35.7237 134.151 34.9034C135.56 34.0748 137.229 33.6605 139.16 33.6605C141.091 33.6605 142.756 34.0748 144.156 34.9034C145.565 35.7237 146.651 36.8755 147.413 38.3587C148.175 39.8336 148.556 41.5571 148.556 43.5291C148.556 45.4846 148.175 47.204 147.413 48.6871C146.651 50.1621 145.565 51.3138 144.156 52.1424C142.756 52.9627 141.091 53.3729 139.16 53.3729ZM139.185 49.2713C140.063 49.2713 140.797 49.0227 141.385 48.5256C141.973 48.0201 142.416 47.3324 142.715 46.4624C143.021 45.5923 143.175 44.6022 143.175 43.4918C143.175 42.3815 143.021 41.3913 142.715 40.5213C142.416 39.6513 141.973 38.9635 141.385 38.4581C140.797 37.9527 140.063 37.6999 139.185 37.6999C138.298 37.6999 137.553 37.9527 136.948 38.4581C136.351 38.9635 135.899 39.6513 135.593 40.5213C135.295 41.3913 135.145 42.3815 135.145 43.4918C135.145 44.6022 135.295 45.5923 135.593 46.4624C135.899 47.3324 136.351 48.0201 136.948 48.5256C137.553 49.0227 138.298 49.2713 139.185 49.2713ZM151.999 53V33.9091H157.132V37.2401H157.331C157.679 36.0552 158.263 35.1603 159.084 34.5554C159.904 33.9422 160.849 33.6357 161.917 33.6357C162.183 33.6357 162.468 33.6522 162.775 33.6854C163.082 33.7185 163.351 33.7641 163.583 33.8221V38.5202C163.334 38.4457 162.991 38.3794 162.551 38.3214C162.112 38.2634 161.71 38.2344 161.346 38.2344C160.567 38.2344 159.871 38.4042 159.258 38.744C158.653 39.0754 158.172 39.5394 157.816 40.136C157.468 40.7326 157.294 41.4203 157.294 42.1992V53H151.999ZM171.118 47.5064L171.13 41.1552H171.901L178.016 33.9091H184.094L175.878 43.5043H174.623L171.118 47.5064ZM166.32 53V27.5455H171.615V53H166.32ZM178.252 53L172.634 44.685L176.164 40.9439L184.454 53H178.252Z" fill="#1E1E1E"/>
<path d="M130 27H120.125L116 30V53H110V27L119 21H130V27ZM130 31V37H120.756L118 39V32.5L120 31H130Z" fill="#033FFF"/>
</svg>
